<?xml version="1.0" encoding="utf-8"?>
<!-- Generator: Adobe Illustrator 16.0.0, SVG Export Plug-In . SVG Version: 6.00 Build 0)  -->
<!DOCTYPE svg PUBLIC "-//W3C//DTD SVG 1.0//EN" "http://www.w3.org/TR/2001/REC-SVG-20010904/DTD/svg10.dtd">
<svg version="1.0" id="Layer_2" xmlns="http://www.w3.org/2000/svg" xmlns:xlink="http://www.w3.org/1999/xlink" x="0px" y="0px"
	 width="156.13px" height="156.13px" viewBox="0 0 156.13 156.13" enable-background="new 0 0 156.13 156.13" xml:space="preserve">
<g>
	<defs>
		<path id="SVGID_1_" d="M33.111,58.764c0,3.042,0.317,6.012,0.918,8.877l39.481,16.43l48.902-18.077
			c0.398-2.354,0.605-4.771,0.605-7.23c0-24.247-20.131-43.899-44.953-43.899C53.235,14.865,33.111,34.517,33.111,58.764"/>
	</defs>
	<clipPath id="SVGID_2_">
		<use xlink:href="#SVGID_1_"  overflow="visible"/>
	</clipPath>
	
		<linearGradient id="SVGID_3_" gradientUnits="userSpaceOnUse" x1="-1116.1509" y1="496.8813" x2="-1115.1509" y2="496.8813" gradientTransform="matrix(0 62.3172 62.3172 0 -30886.2188 69567.3203)">
		<stop  offset="0" style="stop-color:#FAE439"/>
		<stop  offset="0.1193" style="stop-color:#F7D836"/>
		<stop  offset="0.3613" style="stop-color:#EFB42F"/>
		<stop  offset="0.7004" style="stop-color:#E37C21"/>
		<stop  offset="1" style="stop-color:#D8361A"/>
	</linearGradient>
	<rect x="33.111" y="14.865" clip-path="url(#SVGID_2_)" fill="url(#SVGID_3_)" width="89.907" height="69.206"/>
</g>
<g>
	<path fill="#00622E" d="M126.462,90.501c-24.899,1.486-26.1,1.546-26.1,1.546c0.328-0.912-0.636,1.606,20.577-5.689
		c16.576-5.698,29.183-3.648,29.183-3.648c-3.266-17.322-27.077-6.61-37.118-1.139c-9.512,5.188-8.313,0.941-8.313,0.941
		c6.771-14.407,35.484-13.041,35.484-13.041c-14.224-13.937-47.519,8.33-52.048,9.734c-5.918,1.849-6.147,1.713-9.165,2.288
		l-0.076,0.059l-0.354-0.059l-0.264-0.042h-0.407l-0.264,0.042l-0.359,0.059l-0.07-0.059c-3.019-0.575-3.247-0.439-9.168-2.288
		c-4.526-1.404-37.821-23.671-52.045-9.734c0,0,28.712-1.366,35.48,13.041c0,0,1.202,4.247-8.31-0.941
		C33.085,76.1,9.27,65.388,6.005,82.71c0,0,12.608-2.05,29.18,3.648c21.218,7.295,20.253,4.777,20.583,5.689
		c0,0-1.2-0.06-26.101-1.546c0,0-36.247-0.136-28.612,8.51c9.228,10.447,16.436,7.023,16.436,7.023s2.294-3.281,7.06-4.724
		c4.823-1.436,11.529-2.568,24.33-2.341c12.769,0.219,3.658,1.796-0.431,2.723c-4.053,0.938-30.018,5.459-21.588,11.638
		c0,0,7.694,4.587,21.918,5.84c0,0-1.465-4.688,3.053-6.645c4.601-1.95,7.541-3.777,12.488-3.96c0,0,10.253-0.502-0.358,5.601
		c-9.971,6.188-5.4,5.645-5.4,5.645l18.101,11.937l1.412,0.905l1.394-0.905l18.1-11.937c0,0,4.568,0.544-5.399-5.645
		c-10.621-6.103-0.359-5.601-0.359-5.601c4.948,0.183,7.889,2.01,12.489,3.96c4.512,1.956,3.047,6.645,3.047,6.645
		c14.229-1.253,21.93-5.84,21.93-5.84c8.423-6.179-17.541-10.7-21.594-11.638c-4.089-0.927-13.207-2.504-0.431-2.723
		c12.801-0.228,19.507,0.905,24.33,2.341c4.765,1.442,7.059,4.724,7.059,4.724s7.207,3.424,16.437-7.023
		C162.71,90.365,126.462,90.501,126.462,90.501"/>
	<path fill-rule="evenodd" clip-rule="evenodd" fill="#00358E" d="M77.834,92.127c-1.505,0-3.009-0.022-4.513-0.046l-0.468-0.007
		c-2.275-0.035-4.425-0.677-6.39-1.908c-0.262-0.164-0.56-0.274-0.875-0.391c-0.126-0.047-0.251-0.093-0.375-0.143
		c-0.504-0.206-0.95-0.476-1.382-0.737c-0.197-0.12-0.396-0.239-0.599-0.352c-0.567-0.314-0.994-0.759-1.406-1.189
		c-0.143-0.148-0.282-0.295-0.429-0.436c-1.154-1.095-2.489-2.413-3.632-3.876l-0.074-0.094c-0.254-0.327-0.517-0.665-0.733-1.043
		c-0.297-0.519-0.671-0.984-1.067-1.477c-0.465-0.578-0.945-1.176-1.306-1.88c-0.584-1.143-1.155-2.396-1.374-3.819
		c-0.1-0.654-0.035-1.225,0.195-1.744c-0.256,0.037-0.513,0.14-0.784,0.249l-0.096,0.039c-0.955,0.383-1.846,0.57-2.722,0.57
		l-0.164-0.001c-0.421,0-0.841,0.041-1.261,0.081c-0.452,0.042-0.905,0.084-1.359,0.084c-0.118,0-0.236-0.002-0.355-0.008
		c-0.511-0.026-1.024-0.036-1.536-0.036c-0.734,0-1.468,0.02-2.202,0.039c-0.743,0.02-1.486,0.039-2.229,0.039
		c-0.237,0-0.719-0.006-0.723-0.006c-0.164,0-0.291,0.009-0.419,0.017c-0.152,0.011-0.305,0.021-0.458,0.021
		c-0.592-0.005-0.984-0.302-1.082-0.794c-0.104-0.537,0.163-0.988,0.696-1.18c0.066-0.023,0.1-0.032,0.128-0.049
		c0.412-0.666,1.124-0.749,1.62-0.749h0.026c-0.046-0.137-0.065-0.286-0.055-0.442c0.043-0.654,0.52-1.049,1.274-1.054l0.622-0.001
		c0.474,0,0.946,0.003,1.42,0.012h0.002c0.333,0,0.576-0.053,0.779-0.16c0.586-0.314,1.233-0.461,2.033-0.461l0.682,0.002
		c0.689,0,1.422,0.039,2.104,0.499c0.011,0.001,0.021,0.001,0.033,0.001c0.106,0,0.219-0.033,0.328-0.066
		c1.163-0.352,2.266-0.884,3.334-1.399c0.555-0.268,1.11-0.537,1.676-0.783c0.613-0.266,1.235-0.665,1.958-1.254
		c0.265-0.217,0.532-0.42,0.885-0.525c0.768-0.226,1.26-0.723,1.549-1.564c0.254-0.741,0.494-1.488,0.734-2.235
		c0.357-1.11,0.728-2.258,1.141-3.377c0.235-0.643,0.182-1.362,0.124-2.124c-0.019-0.25-0.037-0.5-0.046-0.748
		c-0.053-1.586-0.112-3.383,0.432-5.131c0.114-0.363,0.211-0.734,0.286-1.103c0.299-1.455,1.107-2.677,2.543-3.844
		c1.045-0.849,2.202-1.408,3.498-1.999c0.45-0.205,0.911-0.385,1.373-0.563c0.767-0.298,1.491-0.579,2.167-0.981
		c0.847-0.504,1.471-1.098,1.908-1.816c0.27-0.446,0.321-0.969,0.377-1.522c0.016-0.152,0.03-0.303,0.05-0.454
		c0.049-0.379,0.059-0.762,0.068-1.145c0.007-0.237,0.013-0.474,0.027-0.71c0.014-0.22-0.049-0.389-0.201-0.55
		c-0.485-0.516-0.845-1.098-1.193-1.661l-0.271-0.435c-0.58-0.909-0.591-1.924-0.033-3.015c0.088-0.177,0.127-0.334,0.126-0.524
		c-0.008-0.853,0.003-1.979,0.159-3.104c0.188-1.368,0.93-2.537,2.208-3.477c1.263-0.924,2.784-1.393,4.521-1.393
		c0.12,0,0.239,0.002,0.361,0.007c0.767,0.03,1.474,0.316,2.046,0.825c0.776,0.685,1.393,1.36,1.884,2.063
		c0.75,1.073,0.841,2.264,0.929,3.415l0.012,0.159c0.021,0.265,0.019,0.533,0.016,0.802c-0.002,0.153-0.004,0.307,0,0.46
		c0.007,0.278,0.082,0.521,0.242,0.786c0.593,0.959,0.41,1.967,0.185,2.739c-0.193,0.663-0.564,1.293-1.134,1.927
		c-0.251,0.28-0.358,0.576-0.358,0.985c-0.002,0.7,0.062,1.415,0.124,2.107c0.034,0.386,0.068,0.771,0.093,1.158
		c0.03,0.493,0.406,0.845,0.857,1.222c0.926,0.774,2.088,1.243,3.114,1.657c2.132,0.862,4.563,2.04,6.426,4.237
		c0.399,0.471,0.719,1.03,0.978,1.709c0.788,2.067,1.167,4.279,1.124,6.572c-0.018,1.005,0.121,2.04,0.411,3.075l0.041,0.148
		c0.438,1.569,0.892,3.192,1.45,4.744c0.253,0.704,0.659,1.328,1.091,1.99l0.213,0.327c0.038,0.059,0.104,0.111,0.311,0.179
		c0.872,0.289,1.556,0.599,2.15,0.977c0.915,0.585,2.14,1.314,3.502,1.764c0.067,0.022,0.206,0.065,0.328,0.17
		c0.343,0.292,0.74,0.422,1.288,0.422c0.322,0,0.649-0.042,0.975-0.082l0.525-0.061c0.388-0.04,0.771-0.078,1.149-0.078
		c0.616,0,1.128,0.101,1.609,0.319c0.274,0.126,0.607,0.187,1.021,0.187c0,0,0.568-0.008,0.802-0.008
		c0.383,0,1.343,0.012,1.343,0.012c0.328,0.002,0.812,0.052,1.202,0.453c0.312,0.32,0.418,0.721,0.303,1.134
		c0.119-0.002,0.521-0.012,0.521-0.012c0.271,0,1.076,0,1.375,0.87c0.087,0.065,0.137,0.104,0.179,0.145
		c0.257,0.248,0.378,0.57,0.328,0.882c-0.049,0.313-0.265,0.585-0.592,0.744c-0.279,0.132-0.557,0.147-0.739,0.147
		c-0.437-0.007-0.782-0.019-1.127-0.032c-0.455-0.017-0.91-0.033-1.364-0.033c-0.288,0-0.578,0.007-0.865,0.025
		c-0.802,0.052-1.591,0.062-2.529,0.062l-0.973-0.001c-0.382,0-0.764,0.001-1.146,0.009l-0.195,0.002
		c-0.931,0-1.851-0.125-2.74-0.246l-0.688-0.09c-0.477-0.061-0.916-0.229-1.341-0.391c-0.008-0.003-0.017-0.007-0.024-0.01
		c0.385,1.311,0.301,2.635,0.221,3.924l-0.022,0.366c-0.067,1.1-0.637,1.811-1.266,2.502c-0.416,0.457-0.895,0.81-1.358,1.152
		c-0.359,0.265-0.7,0.516-1.002,0.806c-0.362,0.347-0.73,0.688-1.097,1.026c-1.188,1.1-2.417,2.236-3.392,3.565
		c-1.074,1.463-2.415,2.703-3.882,3.583c-2.433,1.465-4.571,2.146-6.731,2.146l-0.414-0.005c-0.44,0-0.881,0.049-1.347,0.101
		c-0.368,0.04-0.735,0.081-1.104,0.098C81.038,92.097,79.543,92.127,77.834,92.127 M89.919,59.182
		c-0.062,0.386-0.146,0.747-0.229,1.101l-0.068,0.293c-0.32,1.409-0.542,2.868-0.756,4.279l-0.188,1.225
		c-0.035,0.237-0.061,0.475-0.083,0.714c-0.087,1.009,0.091,2,0.278,3.048c0.087,0.489,0.174,0.977,0.234,1.468
		c0.028,0.233,0.063,0.465,0.098,0.697c0.093,0.629,0.189,1.28,0.17,1.956c-0.009,0.246,0.021,0.499,0.093,0.774
		c0.067,0.259,0.178,0.259,0.214,0.259c0.039,0,0.105-0.009,0.2-0.054c0.352-0.167,0.688-0.341,0.929-0.613l0.606-0.687
		c0.476-0.535,0.95-1.071,1.403-1.625c0.579-0.711,1.24-1.221,2.006-1.545c-0.709-0.409-1.281-1.04-1.732-1.907
		c-0.285-0.545-0.535-1.103-0.783-1.661c-0.165-0.37-0.329-0.739-0.505-1.104c-0.816-1.701-1.361-3.595-1.716-5.962
		C90.05,59.58,89.995,59.366,89.919,59.182 M62.745,70.633c0.669,0.434,1.24,0.988,1.847,1.767c0.49,0.623,1.184,1.151,2.117,1.611
		c0.042,0.021,0.075,0.035,0.101,0.044c0.014-0.032,0.03-0.079,0.048-0.145c0.08-0.29,0.118-0.595,0.159-0.919
		c0.056-0.43,0.112-0.874,0.272-1.32c0.251-0.701,0.31-1.446,0.372-2.235l0.038-0.459c0.105-1.171,0.104-2.204-0.007-3.161
		l-0.008-0.064l0.01-0.064c0.096-0.666-0.039-1.328-0.269-2.117c-0.145-0.49-0.282-1.01-0.361-1.555
		c-0.04,0.07-0.07,0.141-0.087,0.214c-0.091,0.39-0.222,0.764-0.354,1.139c-0.116,0.33-0.232,0.66-0.316,1.004
		c-0.432,1.832-1.342,3.452-2.261,4.928C63.704,69.852,63.267,70.298,62.745,70.633"/>
	<path fill="#FFFFFF" d="M79.107,22.696c0.115,0,0.23,0.002,0.346,0.006c0.647,0.026,1.247,0.269,1.731,0.699
		c0.669,0.591,1.289,1.236,1.807,1.975c0.703,1.009,0.763,2.17,0.852,3.327c0.032,0.409,0.004,0.824,0.014,1.236
		c0.01,0.371,0.114,0.701,0.316,1.034c0.458,0.742,0.361,1.553,0.131,2.338c-0.193,0.658-0.573,1.229-1.027,1.733
		c-0.343,0.387-0.485,0.801-0.485,1.321c-0.002,1.105,0.147,2.195,0.218,3.296c0.044,0.708,0.548,1.166,1.036,1.573
		c0.957,0.801,2.094,1.272,3.248,1.738c2.341,0.946,4.555,2.118,6.229,4.097c0.396,0.465,0.678,0.997,0.893,1.563
		c0.784,2.055,1.133,4.181,1.092,6.385c-0.019,1.082,0.133,2.159,0.43,3.219c0.462,1.656,0.92,3.308,1.502,4.926
		c0.316,0.882,0.853,1.64,1.354,2.418c0.136,0.21,0.344,0.307,0.573,0.384c0.713,0.235,1.4,0.517,2.04,0.924
		c1.142,0.729,2.319,1.389,3.613,1.817c0.056,0.017,0.117,0.038,0.16,0.074c0.501,0.426,1.051,0.543,1.613,0.543
		c0.47,0,0.949-0.081,1.417-0.132c0.417-0.042,0.827-0.089,1.233-0.089c0.471,0,0.938,0.063,1.402,0.274
		c0.38,0.174,0.8,0.231,1.228,0.231c0.035,0,0.073,0,0.11-0.001c0.232-0.004,0.465-0.006,0.697-0.006
		c0.444,0,0.887,0.006,1.33,0.011c0.313,0.003,0.615,0.062,0.85,0.302c0.192,0.197,0.253,0.43,0.169,0.689
		c-0.084,0.266-0.304,0.348-0.556,0.35c-0.172,0.003-0.345,0.004-0.524,0.004c-0.183,0-0.374-0.001-0.577-0.001
		c0.093,0.233,0.242,0.257,0.386,0.257c0.037,0,0.074-0.001,0.108-0.001c0.677,0,1.353,0,2.028-0.021
		c0.051-0.002,0.101-0.003,0.149-0.003c0.425,0,0.779,0.089,0.924,0.604c0.029,0.108,0.186,0.177,0.28,0.269
		c0.296,0.284,0.238,0.637-0.135,0.819c-0.165,0.078-0.343,0.096-0.521,0.096c-0.027,0-0.054,0-0.081-0.001
		c-0.804-0.013-1.608-0.064-2.411-0.064c-0.298,0-0.597,0.006-0.894,0.026c-0.838,0.053-1.673,0.061-2.508,0.061
		c-0.319,0-0.64-0.001-0.96-0.001c-0.386,0-0.771,0.002-1.157,0.008c-0.063,0.002-0.125,0.002-0.188,0.002
		c-1.131,0-2.249-0.191-3.364-0.332c-0.601-0.076-1.175-0.363-1.761-0.557c-0.134-0.045-0.265-0.109-0.407-0.109
		c-0.029,0-0.059,0.003-0.089,0.009c0.805,1.622,0.629,3.311,0.528,5.013c-0.058,0.944-0.558,1.558-1.138,2.195
		c-0.689,0.76-1.607,1.234-2.338,1.935c-1.564,1.499-3.242,2.881-4.544,4.654c-1.013,1.382-2.284,2.581-3.735,3.45
		c-1.974,1.188-4.1,2.076-6.476,2.076c-0.085,0-0.17-0.001-0.256-0.003c-0.053-0.002-0.105-0.002-0.158-0.002
		c-0.825,0-1.645,0.16-2.474,0.199c-1.516,0.07-3.032,0.094-4.548,0.094c-1.658,0-3.315-0.026-4.974-0.053
		c-2.189-0.034-4.257-0.658-6.13-1.833c-0.419-0.261-0.886-0.394-1.331-0.573c-0.688-0.281-1.283-0.706-1.923-1.062
		c-0.689-0.381-1.175-1.013-1.732-1.548c-1.267-1.203-2.505-2.443-3.585-3.823c-0.269-0.348-0.549-0.696-0.766-1.077
		c-0.681-1.187-1.73-2.104-2.361-3.337c-0.602-1.175-1.125-2.36-1.326-3.667c-0.078-0.514-0.048-1.026,0.18-1.51
		c0.088-0.187,0.214-0.397,0.078-0.583c-0.072-0.099-0.164-0.128-0.264-0.128c-0.115,0-0.239,0.04-0.353,0.056
		c-0.353,0.049-0.678,0.19-1.005,0.32c-0.816,0.328-1.65,0.535-2.537,0.535c-0.026,0-0.052,0-0.078,0
		c-0.028,0-0.058-0.001-0.086-0.001c-0.875,0-1.743,0.165-2.62,0.165c-0.109,0-0.219-0.002-0.329-0.008
		c-0.52-0.026-1.041-0.036-1.56-0.036c-1.478,0-2.956,0.078-4.434,0.078c-0.235,0-0.469-0.002-0.704-0.006h-0.049
		c-0.282,0-0.566,0.038-0.849,0.038h-0.026c-0.265-0.002-0.506-0.092-0.563-0.391c-0.061-0.308,0.088-0.51,0.375-0.612
		c0.125-0.046,0.258-0.084,0.333-0.202c0.301-0.47,0.744-0.567,1.244-0.567c0.034,0,0.069,0.001,0.104,0.001
		c0.197,0.006,0.395,0.013,0.593,0.013c0.402,0,0.804-0.031,1.198-0.179c-0.145,0-0.291,0.009-0.436,0.009
		c-0.089,0-0.178-0.003-0.266-0.014c-0.461-0.054-0.748-0.361-0.722-0.737c0.026-0.384,0.286-0.586,0.778-0.588
		c0.208-0.001,0.416-0.002,0.624-0.002c0.469,0,0.938,0.003,1.405,0.011c0.015,0.001,0.029,0.001,0.044,0.001
		c0.346,0,0.679-0.058,0.98-0.218c0.567-0.303,1.168-0.403,1.799-0.403c0.04,0,0.08,0.001,0.119,0.001
		c0.077,0.002,0.154,0.002,0.231,0.002c0.109,0,0.221-0.001,0.331-0.001c0.632,0,1.255,0.029,1.825,0.414
		c0.103,0.068,0.209,0.093,0.319,0.093c0.158,0,0.322-0.051,0.487-0.101c1.768-0.535,3.363-1.463,5.043-2.195
		c0.755-0.328,1.436-0.804,2.076-1.326c0.219-0.179,0.44-0.353,0.71-0.432c0.972-0.287,1.557-0.945,1.879-1.881
		c0.638-1.86,1.188-3.752,1.871-5.602c0.358-0.975,0.146-2.037,0.108-3.063c-0.055-1.671-0.096-3.339,0.411-4.964
		c0.119-0.379,0.218-0.765,0.298-1.152c0.31-1.507,1.217-2.62,2.368-3.556c1.021-0.83,2.197-1.388,3.391-1.933
		c1.188-0.542,2.457-0.895,3.588-1.568c0.847-0.504,1.561-1.134,2.079-1.986c0.409-0.678,0.401-1.435,0.496-2.173
		c0.08-0.624,0.061-1.258,0.099-1.888c0.022-0.364-0.095-0.668-0.336-0.924c-0.571-0.606-0.967-1.33-1.408-2.022
		c-0.528-0.829-0.434-1.686-0.009-2.517c0.126-0.249,0.184-0.487,0.181-0.755c-0.009-1.016,0.015-2.029,0.154-3.033
		c0.186-1.348,0.944-2.359,2.009-3.142C76.146,23.068,77.582,22.696,79.107,22.696 M89.681,75.496c0.129,0,0.268-0.033,0.414-0.103
		c0.399-0.189,0.791-0.394,1.09-0.734c0.676-0.773,1.372-1.53,2.021-2.326c0.676-0.829,1.504-1.39,2.543-1.638
		c0.108-0.025,0.239-0.01,0.344-0.143c-0.085-0.169-0.246-0.179-0.379-0.225c-1.019-0.346-1.684-1.044-2.178-1.994
		c-0.472-0.9-0.844-1.839-1.28-2.751c-0.89-1.852-1.372-3.812-1.673-5.818c-0.092-0.612-0.273-1.091-0.699-1.503
		c-0.063-0.062-0.112-0.17-0.207-0.17c-0.01,0-0.021,0.001-0.032,0.004c-0.141,0.038-0.141,0.182-0.144,0.294
		c-0.025,0.709-0.21,1.39-0.367,2.076c-0.416,1.829-0.659,3.688-0.951,5.537c-0.038,0.248-0.063,0.496-0.087,0.745
		c-0.134,1.571,0.325,3.083,0.515,4.624c0.104,0.857,0.288,1.704,0.264,2.577c-0.011,0.312,0.032,0.614,0.107,0.913
		C89.089,75.271,89.348,75.496,89.681,75.496 M66.878,74.574c0.229,0,0.364-0.177,0.463-0.532c0.199-0.724,0.163-1.489,0.419-2.203
		c0.325-0.908,0.354-1.873,0.438-2.817c0.098-1.08,0.117-2.17-0.008-3.263c0.113-0.793-0.059-1.556-0.283-2.328
		c-0.201-0.684-0.378-1.39-0.404-2.114c-0.003-0.097,0.021-0.231-0.11-0.254c-0.008-0.001-0.016-0.002-0.024-0.002
		c-0.069,0-0.156,0.044-0.208,0.092c-0.292,0.274-0.577,0.571-0.668,0.965c-0.171,0.732-0.494,1.407-0.668,2.139
		c-0.409,1.735-1.267,3.281-2.201,4.78c-0.371,0.596-0.875,1.067-1.51,1.379c-0.344,0.169-0.254,0.289,0.009,0.428
		c0.846,0.45,1.487,1.108,2.077,1.862c0.602,0.766,1.412,1.321,2.29,1.753C66.643,74.536,66.771,74.574,66.878,74.574
		 M79.107,21.696c-1.844,0-3.464,0.501-4.813,1.489c-1.393,1.024-2.202,2.306-2.409,3.813c-0.16,1.151-0.172,2.303-0.164,3.178
		c0.001,0.108-0.019,0.187-0.073,0.295c-0.8,1.566-0.41,2.772,0.059,3.506c0.091,0.143,0.18,0.287,0.269,0.43
		c0.361,0.584,0.734,1.188,1.254,1.739c0.062,0.066,0.071,0.103,0.066,0.176c-0.015,0.245-0.022,0.489-0.028,0.733
		c-0.01,0.384-0.02,0.746-0.063,1.09c-0.021,0.156-0.036,0.313-0.052,0.469c-0.052,0.517-0.097,0.964-0.309,1.314
		c-0.392,0.645-0.96,1.183-1.736,1.644c-0.638,0.381-1.344,0.654-2.091,0.944c-0.458,0.178-0.932,0.361-1.399,0.575
		c-1.328,0.606-2.516,1.18-3.605,2.065c-1.511,1.228-2.4,2.58-2.718,4.132c-0.073,0.355-0.165,0.709-0.272,1.053
		c-0.572,1.833-0.51,3.674-0.456,5.298c0.01,0.256,0.029,0.513,0.048,0.771c0.053,0.705,0.103,1.372-0.096,1.913
		c-0.417,1.13-0.788,2.283-1.147,3.399c-0.239,0.743-0.479,1.486-0.731,2.224c-0.234,0.682-0.609,1.067-1.216,1.245
		c-0.441,0.131-0.766,0.377-1.062,0.618c-0.684,0.559-1.269,0.935-1.839,1.182c-0.579,0.252-1.146,0.526-1.693,0.791
		c-1.099,0.53-2.138,1.03-3.242,1.365c-0.042,0.013-0.08,0.025-0.114,0.036c-0.752-0.445-1.54-0.485-2.228-0.485l-0.169,0.001
		h-0.162l-0.212-0.001l-0.139-0.002c-0.873,0-1.614,0.171-2.271,0.521c-0.125,0.067-0.293,0.1-0.509,0.1
		c-0.499-0.009-0.974-0.012-1.449-0.012l-0.628,0.002c-1.233,0.006-1.726,0.823-1.771,1.521c0,0.003-0.001,0.005-0.001,0.008
		c-0.43,0.065-0.995,0.256-1.429,0.809c-0.757,0.304-1.128,0.97-0.979,1.73c0.144,0.732,0.732,1.191,1.536,1.199h0.005
		c0.196,0,0.359-0.011,0.522-0.021c0.119-0.009,0.237-0.017,0.356-0.017c0.271,0.004,0.512,0.006,0.753,0.006
		c0.748,0,1.495-0.02,2.243-0.039c0.73-0.02,1.461-0.039,2.19-0.039c0.554,0,1.047,0.012,1.509,0.034
		c0.126,0.007,0.253,0.01,0.38,0.01c0.486,0,0.954-0.044,1.406-0.087c0.424-0.04,0.824-0.078,1.214-0.078l0.073,0.001h0.091
		c0.935,0,1.879-0.195,2.885-0.597c-0.037,0.336-0.028,0.689,0.027,1.057c0.229,1.495,0.82,2.793,1.424,3.973
		c0.383,0.75,0.88,1.368,1.361,1.966c0.383,0.477,0.745,0.927,1.023,1.412c0.229,0.401,0.496,0.748,0.757,1.083l0.084,0.108
		c1.171,1.496,2.521,2.829,3.688,3.938c0.137,0.132,0.274,0.275,0.411,0.417c0.417,0.436,0.89,0.929,1.525,1.28
		c0.195,0.108,0.388,0.225,0.58,0.341c0.448,0.271,0.911,0.552,1.449,0.771c0.135,0.055,0.267,0.104,0.398,0.152
		c0.289,0.106,0.562,0.208,0.781,0.344c2.041,1.28,4.277,1.948,6.645,1.983l0.45,0.008c1.485,0.022,3.021,0.046,4.538,0.046
		c1.717,0,3.22-0.031,4.595-0.095c0.389-0.019,0.769-0.061,1.135-0.102c0.452-0.05,0.879-0.097,1.292-0.097l0.132,0.002
		c0.095,0.002,0.188,0.003,0.282,0.003c2.255,0,4.478-0.705,6.991-2.219c1.521-0.912,2.913-2.197,4.026-3.715
		c0.944-1.288,2.102-2.358,3.326-3.491c0.369-0.342,0.74-0.684,1.104-1.033c0.279-0.269,0.606-0.51,0.953-0.765
		c0.483-0.357,0.983-0.725,1.432-1.22c0.663-0.727,1.318-1.544,1.396-2.807l0.022-0.366c0.065-1.044,0.131-2.11-0.038-3.187
		c0.199,0.056,0.405,0.102,0.619,0.129c0.229,0.029,0.456,0.06,0.685,0.091c0.904,0.122,1.842,0.249,2.807,0.249l0.207-0.002
		c0.378-0.006,0.758-0.008,1.138-0.008l0.479,0.001h0.481c0.953,0,1.754-0.011,2.572-0.063c0.274-0.018,0.552-0.024,0.829-0.024
		c0.448,0,0.896,0.016,1.345,0.032c0.351,0.014,0.7,0.026,1.049,0.032l0.099,0.001c0.231,0,0.583-0.02,0.947-0.191
		c0.489-0.239,0.806-0.646,0.881-1.123c0.073-0.476-0.101-0.958-0.479-1.322c-0.032-0.031-0.068-0.063-0.107-0.094
		c-0.229-0.532-0.721-1.054-1.776-1.058c-0.043-0.354-0.206-0.69-0.479-0.971c-0.581-0.597-1.316-0.603-1.559-0.605l-0.193-0.002
		c-0.381-0.005-0.762-0.009-1.145-0.009c-0.238,0-0.479,0.002-0.717,0.006l-0.091,0.001c-0.341,0-0.604-0.046-0.81-0.14
		c-0.554-0.25-1.131-0.365-1.82-0.365c-0.416,0-0.815,0.041-1.203,0.081l-0.133,0.014c-0.136,0.014-0.27,0.031-0.403,0.048
		c-0.324,0.04-0.631,0.078-0.911,0.078c-0.432,0-0.711-0.088-0.966-0.305c-0.198-0.168-0.406-0.234-0.506-0.266
		c-1.297-0.428-2.486-1.137-3.378-1.706c-0.631-0.402-1.35-0.729-2.264-1.031c-0.038-0.013-0.063-0.022-0.081-0.03l-0.176-0.27
		c-0.416-0.637-0.809-1.238-1.042-1.889c-0.549-1.531-0.999-3.138-1.434-4.693l-0.048-0.166c-0.275-0.988-0.408-1.974-0.392-2.933
		c0.044-2.357-0.346-4.631-1.157-6.758c-0.278-0.732-0.627-1.339-1.063-1.854c-1.943-2.292-4.558-3.543-6.619-4.377
		c-0.991-0.4-2.115-0.853-2.979-1.577c-0.439-0.365-0.665-0.599-0.681-0.868c-0.025-0.393-0.06-0.784-0.094-1.174
		c-0.063-0.711-0.123-1.383-0.122-2.058c0-0.293,0.062-0.465,0.232-0.658c0.619-0.688,1.025-1.382,1.24-2.117
		c0.235-0.802,0.466-2.001-0.24-3.144c-0.111-0.184-0.163-0.346-0.168-0.534c-0.002-0.148,0-0.297,0-0.446
		c0.005-0.269,0.008-0.548-0.016-0.843l-0.012-0.155c-0.089-1.162-0.189-2.479-1.018-3.666c-0.513-0.734-1.155-1.438-1.964-2.153
		c-0.658-0.584-1.473-0.913-2.354-0.948C79.36,21.698,79.235,21.696,79.107,21.696 M89.901,74.374
		c-0.023-0.143-0.032-0.27-0.028-0.394c0.021-0.725-0.078-1.399-0.175-2.051c-0.034-0.226-0.067-0.453-0.096-0.68
		c-0.063-0.509-0.151-1.01-0.238-1.494c-0.182-1.015-0.353-1.975-0.271-2.923c0.021-0.221,0.043-0.449,0.078-0.677
		c0.064-0.404,0.126-0.811,0.187-1.219c0.165-1.084,0.335-2.196,0.549-3.288c0.349,1.643,0.82,3.059,1.448,4.367
		c0.172,0.358,0.333,0.72,0.494,1.083c0.249,0.556,0.506,1.132,0.801,1.699c0.343,0.657,0.749,1.192,1.229,1.611
		c-0.534,0.335-1.018,0.767-1.447,1.294c-0.441,0.54-0.92,1.08-1.384,1.602c-0.205,0.232-0.411,0.464-0.615,0.697
		C90.303,74.147,90.114,74.265,89.901,74.374 M63.585,70.622c0.341-0.302,0.636-0.654,0.887-1.057
		c0.941-1.512,1.875-3.174,2.324-5.078c0.05-0.209,0.116-0.419,0.189-0.636c0.188,0.664,0.291,1.226,0.215,1.768l-0.019,0.127
		l0.015,0.127c0.106,0.922,0.107,1.923,0.006,3.059l-0.039,0.469c-0.061,0.753-0.117,1.465-0.346,2.101
		c-0.177,0.498-0.24,0.992-0.296,1.428c-0.017,0.133-0.033,0.262-0.052,0.388c-0.636-0.365-1.124-0.769-1.486-1.229
		C64.514,71.485,64.06,71.007,63.585,70.622"/>
</g>
</svg>
