<svg id="Capa_1" data-name="Capa 1" xmlns="http://www.w3.org/2000/svg" viewBox="0 0 1161.32 145.3"><defs><style>.cls-1,.cls-2,.cls-3,.cls-4{fill:#fff;}.cls-2{opacity:0.5;}.cls-3{opacity:0.4;}.cls-4{opacity:0.2;}</style></defs><title>Nuevo Pie de arte</title><path class="cls-1" d="M1232.26,586.33H70.94V513.7c437.78,140.16,809.72-176.8,1161.32,30.68Z" transform="translate(-70.94 -441.03)"/><path class="cls-2" d="M1232.26,545.45c-359-209.42-656.58,101.12-1161.32,0V518.33c239.52,90,809.54-180.45,1161.32,16.33Z" transform="translate(-70.94 -441.03)"/><path class="cls-3" d="M1232.26,526.37c-359-209.42-656.58,101.12-1161.32,0V485.3C534.71,588.08,848.8,340.08,1232.26,509.36Z" transform="translate(-70.94 -441.03)"/><path class="cls-4" d="M1232.26,531.66c-359-189-646.88,76.83-1161.32-25.67v-46.4c463.77,92.74,777.87-112.78,1161.32,40Z" transform="translate(-70.94 -441.03)"/></svg>